<svg id="Asset_2" data-name="Asset 2" xmlns="http://www.w3.org/2000/svg" viewBox="0 0 25.998 25.998">
  <defs>
    <style>
      .cls-1 {
        fill: #ff8699;
      }
    </style>
  </defs>
  <g id="Layer_1" data-name="Layer 1" transform="translate(0 0)">
    <path id="Path_3" data-name="Path 3" class="cls-1" d="M24.56,0H1.445A1.432,1.432,0,0,0,0,1.432V24.547a1.432,1.432,0,0,0,1.432,1.438H13.888V15.93H10.5V12.007h3.39v-2.9c0-3.358,2.048-5.182,5.04-5.182a26.916,26.916,0,0,1,3.031.154V7.59H19.9c-1.624,0-1.926.777-1.926,1.926v2.5h3.853l-.507,3.923H17.94V26h6.62A1.438,1.438,0,0,0,26,24.56V1.445A1.432,1.432,0,0,0,24.56,0Z" transform="translate(0 0)"/>
  </g>
</svg>
