<svg id="Asset_1" data-name="Asset 1" xmlns="http://www.w3.org/2000/svg" viewBox="0 0 27 27">
  <defs>
    <style>
      .cls-1 {
        fill: #ff8699;
      }
    </style>
  </defs>
  <g id="Layer_1" data-name="Layer 1">
    <path id="Path_1" data-name="Path 1" class="cls-1" d="M18.495,14a4.495,4.495,0,1,0,4.495,4.495A4.495,4.495,0,0,0,18.495,14Z" transform="translate(-5.011 -5.011)"/>
    <path id="Path_2" data-name="Path 2" class="cls-1" d="M26.9,7.93a9.85,9.85,0,0,0-.642-3.275,6.5,6.5,0,0,0-1.541-2.389A6.652,6.652,0,0,0,22.332.706,9.9,9.9,0,0,0,19.057.064C17.619,0,17.157,0,13.484,0S9.362,0,7.923.083A9.869,9.869,0,0,0,4.649.726,6.594,6.594,0,0,0,2.267,2.267,6.594,6.594,0,0,0,.706,4.655,9.869,9.869,0,0,0,.064,7.93C0,9.368,0,9.83,0,13.484s0,4.129.083,5.567a9.9,9.9,0,0,0,.642,3.275,6.652,6.652,0,0,0,1.541,2.4,6.5,6.5,0,0,0,2.389,1.554,9.85,9.85,0,0,0,3.275.642c1.438.064,1.926.083,5.561.083s4.129,0,5.567-.083a9.888,9.888,0,0,0,3.275-.642,6.877,6.877,0,0,0,3.942-3.942,9.888,9.888,0,0,0,.642-3.275c.064-1.438.083-1.926.083-5.567S26.968,9.368,26.9,7.93ZM13.484,21.009a7.519,7.519,0,1,1,5.323-2.2A7.519,7.519,0,0,1,13.484,21.009ZM21.362,7.455a1.83,1.83,0,1,1,1.824-1.83,1.83,1.83,0,0,1-1.824,1.83Z"/>
  </g>
</svg>
